<?xml version='1.0' encoding='utf-8'?>
<svg xmlns="http://www.w3.org/2000/svg" width="3840" height="2160" version="1.1" viewBox="0 0 1016 571.5"> <g transform="translate(0 274.5)"> <rect y="126.61" width="205.38" height="170.39" fill="#00254d" style="paint-order:normal"/> <rect x="181.43" y="126.61" width="200.89" height="170.39" fill="#fff" style="paint-order:normal"/> <rect x="362.86" y="126.61" width="194.9" height="170.39" fill="#4b00a0" style="paint-order:normal"/> <rect x="544.29" y="126.61" width="190.41" height="170.39" fill="#090909" style="paint-order:normal"/> <rect x="725.71" y="126.61" width="60.355" height="170.39" style="paint-order:normal"/> <rect x="774.1" y="126.61" width="60.355" height="170.39" fill="#0f0f0f" style="paint-order:normal"/> <rect x="822.48" y="126.61" width="64.845" height="170.39" fill="#1b1b1b" style="paint-order:normal"/> <rect x="870.86" y="126.61" width="145.14" height="170.39" fill="#090909" style="paint-order:normal"/> <rect x="145.14" y="-274.5" width="145.14" height="393.7" fill="#f7f700" style="paint-order:normal"/> <rect x="290.29" y="-274.5" width="145.14" height="393.7" fill="#00f5f5" style="paint-order:normal"/> <rect x="435.43" y="-274.5" width="145.14" height="393.7" fill="#00f000" style="paint-order:normal"/> <rect x="580.57" y="-274.5" width="145.14" height="393.7" fill="#c000f2" style="paint-order:normal"/> <rect x="725.71" y="-274.5" width="145.14" height="393.7" fill="#e00" style="paint-order:normal"/> <rect x="870.86" y="-274.5" width="145.14" height="393.7" fill="#0000e8" style="paint-order:normal"/> <rect x="-1.2032e-13" y="-274.5" width="145.14" height="393.7" fill="#c5c5c5" style="paint-order:normal"/> <rect y="106.5" width="145.14" height="47.625" fill="#0000e8" style="paint-order:normal"/> <rect x="145.14" y="106.5" width="145.14" height="47.625" fill="#090909" style="paint-order:normal"/> <rect x="290.29" y="106.5" width="145.14" height="47.625" fill="#c000f2" style="paint-order:normal"/> <rect x="435.43" y="106.5" width="145.14" height="47.625" fill="#090909" style="paint-order:normal"/> <rect x="580.57" y="106.5" width="145.14" height="47.625" fill="#00f5f5" style="paint-order:normal"/> <rect x="725.71" y="106.5" width="145.14" height="47.625" fill="#090909" style="paint-order:normal"/> <rect x="870.86" y="106.5" width="145.14" height="47.625" fill="#c5c5c5" style="paint-order:normal"/> </g> </svg>